<?xml version="1.0" encoding="iso-8859-1"?><svg fill="#cccccc" version="1.0" xmlns="http://www.w3.org/2000/svg" width="220.000000pt" height="229.000000pt" viewBox="0 0 220.000000 229.000000" preserveAspectRatio="xMidYMid meet"><g transform="translate(0.000000,229.000000) scale(0.100000,-0.100000)" fill="#cccccc" stroke="none"><path d="M1396 2017 l-226 -172 40 -3 40 -3 0 -224 0 -224 165 -128 c166 -128
184 -150 153 -181 -7 -7 -27 -12 -45 -12 l-33 0 0 -415 0 -415 233 0 c127 0 238 4 244 8 10 6 13 181 15 798 l3 789 41 5 42 5 -132 101 c-72 56 -172 133
-223 172 l-91 71 -226 -172z m214 -272 l0 -45 -45 0 -45 0 0 45 0 45 45 0 45 0 0 -45z m110 0 l0 -45 -45 0 -45 0 0 45 0 45 45 0 45 0 0 -45z m-110 -115 l0 -40 -45 0 -45 0 0 40 0 40 45 0 45 0 0 -40z m110 0 l0 -40 -45 0 -45 0 0 40 0 40 45 0 45 0 0 -40z"/><path d="M853 1303 c-122 -93 -222 -171 -222 -175 -1 -5 17 -8 39 -8 l40 0 0 -114 0 -114 173 -132 c169 -130 207 -163 207 -181 0 -20 -42 -49 -70 -49 l-30 0 0 -145 0 -145 209 0 c115 0 216 3 225 6 14 5 16 54 16 440 l0 433 47 3 48 3 -218 168 c-119 92 -223 170 -230 172 -6 3 -112 -70 -234 -162z m217 -233 l0 -40 -45 0 -45 0 0 40 0 40 45 0 45 0 0 -40z m110 0 l0 -40 -45 0 -45 0 0 40 0 40 45 0 45 0 0 -40z m-110 -115 l0 -45 -45 0 -45 0 0 45 0 45 45 0 45 0 0 -45z m110 0 l0 -45 -45 0 -45 0 0 45 0 45 45 0 45 0 0 -45z"/><path d="M361 756 l-224 -171 39 -5 39 -5 3 -160 c2 -112 6 -161 15 -167 21 -13 691 -10 705 4 8 8 12 60 12 169 l0 158 40 3 40 3 -207 160 c-114 88 -214 165 -222 171 -13 9 -57 -20 -240 -160z m209 -206 l0 -40 -45 0 -45 0 0 40 0 40 45 0 45 0 0 -40z m110 0 l0 -40 -45 0 -45 0 0 40 0 40 45 0 45 0 0 -40z m-110 -115 l0 -45 -45 0 -45 0 0 45 0 45 45 0 45 0 0 -45z m110 0 l0 -45 -45 0 -45 0 0 45 0 45 45 0 45 0 0 -45z"/></g></svg>
